# xmcd
#
# Track frame offsets: 
#        150
#        43979
#        79171
#        112807
#        152127
#        174483
#        190054
#
# Disc length: 3012 seconds
#
# Revision: 2
# Processed by: cddbd v1.5.2PL0 Copyright (c) Steve Scherf et al.
# Submitted via: ExactAudioCopy v0.99pb5
#
DISCID=510bc207
DTITLE=Will Vinson - The World (Through My Shoes)
DYEAR=2010
DGENRE=Jazz
TTITLE0=I Am James Bond
TTITLE1=Dean Street Rundown
TTITLE2=Limp Of Faith
TTITLE3=The End Of A Love Affair
TTITLE4=Philos O' Fur
TTITLE5=Pretty Things
TTITLE6=The World Through My Shoes
EXTD=YEAR: 2010
EXTT0=
EXTT1=
EXTT2=
EXTT3=
EXTT4=
EXTT5=
EXTT6=
PLAYORDER=
